<mxfile host="app.diagrams.net" modified="2024-02-04T14:05:55.631Z" agent="Mozilla/5.0 (Windows NT 10.0; Win64; x64) AppleWebKit/537.36 (KHTML, like Gecko) Chrome/121.0.0.0 Safari/537.36" etag="79Ps2mlZkaQitpU-Ho2_" version="22.1.16" type="device">
  <diagram name="Page-1" id="wh8dD2BX7OOQ52GZGnCQ">
    <mxGraphModel dx="2707" dy="917" grid="1" gridSize="10" guides="1" tooltips="1" connect="1" arrows="1" fold="1" page="1" pageScale="1" pageWidth="850" pageHeight="1100" math="0" shadow="0">
      <root>
        <mxCell id="0" />
        <mxCell id="1" parent="0" />
        <mxCell id="UC0Fd1rcEqtms9M9d0l6-12" value="" style="rounded=1;whiteSpace=wrap;html=1;" parent="1" vertex="1">
          <mxGeometry x="-145" y="100" width="310" height="471" as="geometry" />
        </mxCell>
        <mxCell id="dDhOK2jrjEGGhazRPi_E-33" value="" style="rounded=1;whiteSpace=wrap;html=1;" parent="1" vertex="1">
          <mxGeometry x="-520" y="670" width="1140" height="680" as="geometry" />
        </mxCell>
        <mxCell id="dDhOK2jrjEGGhazRPi_E-1" value="" style="rounded=1;whiteSpace=wrap;html=1;" parent="1" vertex="1">
          <mxGeometry x="-100" y="820" width="640" height="440" as="geometry" />
        </mxCell>
        <mxCell id="dDhOK2jrjEGGhazRPi_E-2" value="&lt;font size=&quot;1&quot; style=&quot;&quot;&gt;&lt;b style=&quot;font-size: 25px;&quot;&gt;Server&lt;/b&gt;&lt;/font&gt;" style="text;html=1;strokeColor=none;fillColor=none;align=center;verticalAlign=middle;whiteSpace=wrap;rounded=0;" parent="1" vertex="1">
          <mxGeometry x="125" y="849" width="130" height="30" as="geometry" />
        </mxCell>
        <mxCell id="dDhOK2jrjEGGhazRPi_E-3" value="" style="rounded=1;whiteSpace=wrap;html=1;strokeWidth=2;" parent="1" vertex="1">
          <mxGeometry x="121.25" y="980" width="200" height="110" as="geometry" />
        </mxCell>
        <mxCell id="dDhOK2jrjEGGhazRPi_E-5" value="&lt;font style=&quot;font-size: 16px;&quot;&gt;Ecom-Repo Image&lt;/font&gt;" style="text;html=1;strokeColor=none;fillColor=none;align=center;verticalAlign=middle;whiteSpace=wrap;rounded=0;" parent="1" vertex="1">
          <mxGeometry x="166.25" y="1020" width="110" height="30" as="geometry" />
        </mxCell>
        <mxCell id="dDhOK2jrjEGGhazRPi_E-7" value="&lt;font style=&quot;font-size: 16px;&quot;&gt;DB&lt;/font&gt;" style="shape=cylinder3;whiteSpace=wrap;html=1;boundedLbl=1;backgroundOutline=1;size=15;strokeWidth=2;" parent="1" vertex="1">
          <mxGeometry x="411.25" y="970" width="90" height="120" as="geometry" />
        </mxCell>
        <mxCell id="dDhOK2jrjEGGhazRPi_E-8" value="&lt;font style=&quot;font-size: 16px;&quot;&gt;PostgreSQL&lt;/font&gt;" style="text;html=1;strokeColor=none;fillColor=none;align=center;verticalAlign=middle;whiteSpace=wrap;rounded=0;" parent="1" vertex="1">
          <mxGeometry x="406.25" y="1100" width="100" height="30" as="geometry" />
        </mxCell>
        <mxCell id="dDhOK2jrjEGGhazRPi_E-10" value="&lt;font style=&quot;font-size: 16px;&quot;&gt;Cache&lt;/font&gt;" style="shape=cylinder3;whiteSpace=wrap;html=1;boundedLbl=1;backgroundOutline=1;size=15;strokeWidth=2;" parent="1" vertex="1">
          <mxGeometry x="-61.25" y="980" width="90" height="100" as="geometry" />
        </mxCell>
        <mxCell id="dDhOK2jrjEGGhazRPi_E-15" value="" style="shape=flexArrow;endArrow=classic;startArrow=classic;html=1;rounded=0;strokeWidth=2;" parent="1" source="dDhOK2jrjEGGhazRPi_E-3" target="dDhOK2jrjEGGhazRPi_E-7" edge="1">
          <mxGeometry width="100" height="100" relative="1" as="geometry">
            <mxPoint x="181.25" y="1059" as="sourcePoint" />
            <mxPoint x="281.25" y="959" as="targetPoint" />
          </mxGeometry>
        </mxCell>
        <mxCell id="dDhOK2jrjEGGhazRPi_E-16" value="" style="shape=sumEllipse;perimeter=ellipsePerimeter;whiteSpace=wrap;html=1;backgroundOutline=1;strokeWidth=2;" parent="1" vertex="1">
          <mxGeometry x="8.75" y="1050" width="30" height="30" as="geometry" />
        </mxCell>
        <mxCell id="dDhOK2jrjEGGhazRPi_E-17" value="&lt;font style=&quot;font-size: 16px;&quot;&gt;Redis&lt;/font&gt;" style="text;html=1;strokeColor=none;fillColor=none;align=center;verticalAlign=middle;whiteSpace=wrap;rounded=0;" parent="1" vertex="1">
          <mxGeometry x="-66.25" y="950" width="100" height="30" as="geometry" />
        </mxCell>
        <mxCell id="dDhOK2jrjEGGhazRPi_E-27" value="" style="rounded=1;whiteSpace=wrap;html=1;" parent="1" vertex="1">
          <mxGeometry x="-420" y="829" width="275" height="440" as="geometry" />
        </mxCell>
        <mxCell id="dDhOK2jrjEGGhazRPi_E-28" value="&lt;font size=&quot;1&quot; style=&quot;&quot;&gt;&lt;b style=&quot;font-size: 25px;&quot;&gt;Client App&lt;/b&gt;&lt;/font&gt;" style="text;html=1;strokeColor=none;fillColor=none;align=center;verticalAlign=middle;whiteSpace=wrap;rounded=0;" parent="1" vertex="1">
          <mxGeometry x="-361.25" y="849" width="157.5" height="30" as="geometry" />
        </mxCell>
        <mxCell id="dDhOK2jrjEGGhazRPi_E-32" value="&lt;font style=&quot;font-size: 16px;&quot;&gt;Django&lt;/font&gt;" style="text;html=1;strokeColor=none;fillColor=none;align=center;verticalAlign=middle;whiteSpace=wrap;rounded=0;" parent="1" vertex="1">
          <mxGeometry x="191.25" y="1100" width="100" height="30" as="geometry" />
        </mxCell>
        <mxCell id="dDhOK2jrjEGGhazRPi_E-34" value="&lt;font size=&quot;1&quot; style=&quot;&quot;&gt;&lt;b style=&quot;font-size: 30px;&quot;&gt;System Architecture (Monolith)&lt;/b&gt;&lt;/font&gt;" style="text;html=1;strokeColor=none;fillColor=none;align=center;verticalAlign=middle;whiteSpace=wrap;rounded=0;" parent="1" vertex="1">
          <mxGeometry x="-115" y="730" width="330" height="30" as="geometry" />
        </mxCell>
        <mxCell id="UC0Fd1rcEqtms9M9d0l6-6" value="&lt;font style=&quot;font-size: 15px;&quot;&gt;User Management&lt;/font&gt;" style="rounded=1;whiteSpace=wrap;html=1;" parent="1" vertex="1">
          <mxGeometry x="-110" y="231" width="240" height="41" as="geometry" />
        </mxCell>
        <mxCell id="UC0Fd1rcEqtms9M9d0l6-7" value="&lt;font style=&quot;font-size: 15px;&quot;&gt;Inventory Management&lt;/font&gt;" style="rounded=1;whiteSpace=wrap;html=1;" parent="1" vertex="1">
          <mxGeometry x="-110" y="282" width="240" height="41" as="geometry" />
        </mxCell>
        <mxCell id="UC0Fd1rcEqtms9M9d0l6-8" value="&lt;font style=&quot;font-size: 15px;&quot;&gt;Order Management&lt;/font&gt;" style="rounded=1;whiteSpace=wrap;html=1;" parent="1" vertex="1">
          <mxGeometry x="-110" y="331" width="240" height="41" as="geometry" />
        </mxCell>
        <mxCell id="UC0Fd1rcEqtms9M9d0l6-9" value="&lt;font style=&quot;font-size: 15px;&quot;&gt;Delivery Management&lt;/font&gt;" style="rounded=1;whiteSpace=wrap;html=1;" parent="1" vertex="1">
          <mxGeometry x="-110" y="380" width="240" height="41" as="geometry" />
        </mxCell>
        <mxCell id="UC0Fd1rcEqtms9M9d0l6-10" value="&lt;font style=&quot;font-size: 15px;&quot;&gt;Notification Management&lt;/font&gt;" style="rounded=1;whiteSpace=wrap;html=1;" parent="1" vertex="1">
          <mxGeometry x="-110" y="430" width="240" height="41" as="geometry" />
        </mxCell>
        <mxCell id="UC0Fd1rcEqtms9M9d0l6-11" value="\" style="shape=actor;whiteSpace=wrap;html=1;strokeWidth=3;" parent="1" vertex="1">
          <mxGeometry x="-323.75" y="969" width="82.5" height="101" as="geometry" />
        </mxCell>
        <mxCell id="UC0Fd1rcEqtms9M9d0l6-13" value="&lt;font style=&quot;font-size: 18px;&quot;&gt;Ecommerce-Business-Platform&lt;/font&gt;" style="text;html=1;strokeColor=none;fillColor=none;align=center;verticalAlign=middle;whiteSpace=wrap;rounded=0;" parent="1" vertex="1">
          <mxGeometry x="-70" y="121" width="150" height="70" as="geometry" />
        </mxCell>
        <mxCell id="UC0Fd1rcEqtms9M9d0l6-18" value="" style="rounded=1;whiteSpace=wrap;html=1;" parent="1" vertex="1">
          <mxGeometry x="-520" y="1500" width="1140" height="900" as="geometry" />
        </mxCell>
        <mxCell id="UC0Fd1rcEqtms9M9d0l6-19" value="" style="rounded=1;whiteSpace=wrap;html=1;" parent="1" vertex="1">
          <mxGeometry x="-100" y="1670" width="630" height="590" as="geometry" />
        </mxCell>
        <mxCell id="UC0Fd1rcEqtms9M9d0l6-20" value="&lt;font size=&quot;1&quot; style=&quot;&quot;&gt;&lt;b style=&quot;font-size: 25px;&quot;&gt;Server&lt;/b&gt;&lt;/font&gt;" style="text;html=1;strokeColor=none;fillColor=none;align=center;verticalAlign=middle;whiteSpace=wrap;rounded=0;" parent="1" vertex="1">
          <mxGeometry x="150" y="1690" width="130" height="30" as="geometry" />
        </mxCell>
        <mxCell id="UC0Fd1rcEqtms9M9d0l6-21" value="" style="rounded=1;whiteSpace=wrap;html=1;strokeWidth=2;" parent="1" vertex="1">
          <mxGeometry x="121.25" y="1760" width="200" height="110" as="geometry" />
        </mxCell>
        <mxCell id="UC0Fd1rcEqtms9M9d0l6-22" value="&lt;font style=&quot;font-size: 16px;&quot;&gt;Ecom-Repo Image&lt;/font&gt;" style="text;html=1;strokeColor=none;fillColor=none;align=center;verticalAlign=middle;whiteSpace=wrap;rounded=0;" parent="1" vertex="1">
          <mxGeometry x="166.25" y="1800" width="110" height="30" as="geometry" />
        </mxCell>
        <mxCell id="UC0Fd1rcEqtms9M9d0l6-23" value="&lt;font style=&quot;font-size: 16px;&quot;&gt;DB&lt;/font&gt;" style="shape=cylinder3;whiteSpace=wrap;html=1;boundedLbl=1;backgroundOutline=1;size=15;strokeWidth=2;" parent="1" vertex="1">
          <mxGeometry x="406.25" y="1750" width="90" height="120" as="geometry" />
        </mxCell>
        <mxCell id="UC0Fd1rcEqtms9M9d0l6-24" value="&lt;font style=&quot;font-size: 16px;&quot;&gt;PostgreSQL&lt;/font&gt;" style="text;html=1;strokeColor=none;fillColor=none;align=center;verticalAlign=middle;whiteSpace=wrap;rounded=0;" parent="1" vertex="1">
          <mxGeometry x="401.25" y="1880" width="100" height="30" as="geometry" />
        </mxCell>
        <mxCell id="UC0Fd1rcEqtms9M9d0l6-25" value="&lt;font style=&quot;font-size: 16px;&quot;&gt;Cache&lt;/font&gt;" style="shape=cylinder3;whiteSpace=wrap;html=1;boundedLbl=1;backgroundOutline=1;size=15;strokeWidth=2;" parent="1" vertex="1">
          <mxGeometry x="-56.25" y="1770" width="90" height="100" as="geometry" />
        </mxCell>
        <mxCell id="UC0Fd1rcEqtms9M9d0l6-27" value="" style="shape=flexArrow;endArrow=classic;startArrow=classic;html=1;rounded=0;strokeWidth=2;" parent="1" source="UC0Fd1rcEqtms9M9d0l6-21" target="UC0Fd1rcEqtms9M9d0l6-23" edge="1">
          <mxGeometry width="100" height="100" relative="1" as="geometry">
            <mxPoint x="241.25" y="1829" as="sourcePoint" />
            <mxPoint x="341.25" y="1729" as="targetPoint" />
          </mxGeometry>
        </mxCell>
        <mxCell id="UC0Fd1rcEqtms9M9d0l6-28" value="" style="shape=sumEllipse;perimeter=ellipsePerimeter;whiteSpace=wrap;html=1;backgroundOutline=1;strokeWidth=2;" parent="1" vertex="1">
          <mxGeometry x="13.75" y="1840" width="30" height="30" as="geometry" />
        </mxCell>
        <mxCell id="UC0Fd1rcEqtms9M9d0l6-29" value="&lt;font style=&quot;font-size: 16px;&quot;&gt;Redis&lt;/font&gt;" style="text;html=1;strokeColor=none;fillColor=none;align=center;verticalAlign=middle;whiteSpace=wrap;rounded=0;" parent="1" vertex="1">
          <mxGeometry x="-61.25" y="1740" width="100" height="30" as="geometry" />
        </mxCell>
        <mxCell id="UC0Fd1rcEqtms9M9d0l6-33" value="" style="rounded=1;whiteSpace=wrap;html=1;" parent="1" vertex="1">
          <mxGeometry x="-430" y="1670" width="275" height="440" as="geometry" />
        </mxCell>
        <mxCell id="UC0Fd1rcEqtms9M9d0l6-34" value="&lt;font size=&quot;1&quot; style=&quot;&quot;&gt;&lt;b style=&quot;font-size: 25px;&quot;&gt;Client App&lt;/b&gt;&lt;/font&gt;" style="text;html=1;strokeColor=none;fillColor=none;align=center;verticalAlign=middle;whiteSpace=wrap;rounded=0;" parent="1" vertex="1">
          <mxGeometry x="-371.25" y="1690" width="157.5" height="30" as="geometry" />
        </mxCell>
        <mxCell id="UC0Fd1rcEqtms9M9d0l6-35" value="&lt;font style=&quot;font-size: 16px;&quot;&gt;Django&lt;/font&gt;" style="text;html=1;strokeColor=none;fillColor=none;align=center;verticalAlign=middle;whiteSpace=wrap;rounded=0;" parent="1" vertex="1">
          <mxGeometry x="170" y="1880" width="100" height="30" as="geometry" />
        </mxCell>
        <mxCell id="UC0Fd1rcEqtms9M9d0l6-36" value="&lt;font size=&quot;1&quot; style=&quot;&quot;&gt;&lt;b style=&quot;font-size: 30px;&quot;&gt;System Architecture (Micro-service)&lt;/b&gt;&lt;/font&gt;" style="text;html=1;strokeColor=none;fillColor=none;align=center;verticalAlign=middle;whiteSpace=wrap;rounded=0;" parent="1" vertex="1">
          <mxGeometry x="-138.75" y="1540" width="330" height="30" as="geometry" />
        </mxCell>
        <mxCell id="UC0Fd1rcEqtms9M9d0l6-37" value="\" style="shape=actor;whiteSpace=wrap;html=1;strokeWidth=3;" parent="1" vertex="1">
          <mxGeometry x="-333.75" y="1810" width="82.5" height="101" as="geometry" />
        </mxCell>
        <mxCell id="UC0Fd1rcEqtms9M9d0l6-38" value="Delivery Management" style="rounded=1;whiteSpace=wrap;html=1;" parent="1" vertex="1">
          <mxGeometry x="-10" y="1950" width="175" height="90" as="geometry" />
        </mxCell>
        <mxCell id="UC0Fd1rcEqtms9M9d0l6-39" value="Notification Management" style="rounded=1;whiteSpace=wrap;html=1;" parent="1" vertex="1">
          <mxGeometry x="240" y="1950" width="185" height="90" as="geometry" />
        </mxCell>
        <mxCell id="UC0Fd1rcEqtms9M9d0l6-40" value="FastAPI" style="text;html=1;strokeColor=none;fillColor=none;align=center;verticalAlign=middle;whiteSpace=wrap;rounded=0;" parent="1" vertex="1">
          <mxGeometry x="43.75" y="2040" width="60" height="30" as="geometry" />
        </mxCell>
        <mxCell id="UC0Fd1rcEqtms9M9d0l6-43" value="FastAPI" style="text;html=1;strokeColor=none;fillColor=none;align=center;verticalAlign=middle;whiteSpace=wrap;rounded=0;" parent="1" vertex="1">
          <mxGeometry x="300" y="2040" width="60" height="30" as="geometry" />
        </mxCell>
        <mxCell id="UC0Fd1rcEqtms9M9d0l6-48" value="" style="shape=flexArrow;endArrow=classic;startArrow=classic;html=1;rounded=0;strokeWidth=2;entryX=0.5;entryY=0;entryDx=0;entryDy=0;exitX=0.156;exitY=1.044;exitDx=0;exitDy=0;exitPerimeter=0;" parent="1" source="UC0Fd1rcEqtms9M9d0l6-21" target="UC0Fd1rcEqtms9M9d0l6-38" edge="1">
          <mxGeometry width="100" height="100" relative="1" as="geometry">
            <mxPoint x="32.5" y="2092.2" as="sourcePoint" />
            <mxPoint x="167.5" y="2090.2" as="targetPoint" />
          </mxGeometry>
        </mxCell>
        <mxCell id="UC0Fd1rcEqtms9M9d0l6-52" value="" style="shape=flexArrow;endArrow=classic;startArrow=classic;html=1;rounded=0;strokeWidth=2;entryX=0.44;entryY=-0.027;entryDx=0;entryDy=0;entryPerimeter=0;exitX=0.864;exitY=1.021;exitDx=0;exitDy=0;exitPerimeter=0;" parent="1" source="UC0Fd1rcEqtms9M9d0l6-21" target="UC0Fd1rcEqtms9M9d0l6-39" edge="1">
          <mxGeometry width="100" height="100" relative="1" as="geometry">
            <mxPoint x="150" y="2000" as="sourcePoint" />
            <mxPoint x="283.78453038674024" y="2130" as="targetPoint" />
          </mxGeometry>
        </mxCell>
        <mxCell id="UC0Fd1rcEqtms9M9d0l6-54" value="&lt;font style=&quot;font-size: 16px;&quot;&gt;DB&lt;/font&gt;" style="shape=cylinder3;whiteSpace=wrap;html=1;boundedLbl=1;backgroundOutline=1;size=15;strokeWidth=2;" parent="1" vertex="1">
          <mxGeometry x="35" y="2130" width="90" height="90" as="geometry" />
        </mxCell>
        <mxCell id="UC0Fd1rcEqtms9M9d0l6-55" value="&lt;font style=&quot;font-size: 16px;&quot;&gt;DB&lt;/font&gt;" style="shape=cylinder3;whiteSpace=wrap;html=1;boundedLbl=1;backgroundOutline=1;size=15;strokeWidth=2;" parent="1" vertex="1">
          <mxGeometry x="285" y="2130" width="90" height="90" as="geometry" />
        </mxCell>
        <mxCell id="UC0Fd1rcEqtms9M9d0l6-56" value="" style="shape=flexArrow;endArrow=classic;startArrow=classic;html=1;rounded=0;strokeWidth=2;entryX=0.427;entryY=-0.002;entryDx=0;entryDy=0;exitX=0.489;exitY=0.939;exitDx=0;exitDy=0;entryPerimeter=0;exitPerimeter=0;" parent="1" source="UC0Fd1rcEqtms9M9d0l6-40" target="UC0Fd1rcEqtms9M9d0l6-54" edge="1">
          <mxGeometry width="100" height="100" relative="1" as="geometry">
            <mxPoint x="69.99999999999977" y="2070" as="sourcePoint" />
            <mxPoint x="-5" y="2230" as="targetPoint" />
          </mxGeometry>
        </mxCell>
        <mxCell id="UC0Fd1rcEqtms9M9d0l6-57" value="" style="shape=flexArrow;endArrow=classic;startArrow=classic;html=1;rounded=0;strokeWidth=2;entryX=0.427;entryY=-0.002;entryDx=0;entryDy=0;exitX=0.5;exitY=1;exitDx=0;exitDy=0;entryPerimeter=0;" parent="1" edge="1">
          <mxGeometry width="100" height="100" relative="1" as="geometry">
            <mxPoint x="328.29" y="2070.18" as="sourcePoint" />
            <mxPoint x="331.29" y="2130.18" as="targetPoint" />
          </mxGeometry>
        </mxCell>
        <mxCell id="oXCxRZ8SSX7jiGahkm72-1" value="&lt;font style=&quot;font-size: 15px;&quot;&gt;User&lt;/font&gt;" style="text;html=1;strokeColor=none;fillColor=none;align=center;verticalAlign=middle;whiteSpace=wrap;rounded=0;" parent="1" vertex="1">
          <mxGeometry x="-312.5" y="1080" width="60" height="30" as="geometry" />
        </mxCell>
        <mxCell id="oXCxRZ8SSX7jiGahkm72-5" value="" style="shape=flexArrow;endArrow=classic;startArrow=classic;html=1;rounded=0;strokeWidth=2;" parent="1" edge="1">
          <mxGeometry width="100" height="100" relative="1" as="geometry">
            <mxPoint x="28.75" y="1036.0900000000001" as="sourcePoint" />
            <mxPoint x="118.75" y="1034.0900000000001" as="targetPoint" />
          </mxGeometry>
        </mxCell>
        <mxCell id="oXCxRZ8SSX7jiGahkm72-8" value="&lt;font style=&quot;font-size: 16px;&quot;&gt;User&lt;/font&gt;" style="text;html=1;strokeColor=none;fillColor=none;align=center;verticalAlign=middle;whiteSpace=wrap;rounded=0;" parent="1" vertex="1">
          <mxGeometry x="-322.5" y="1921" width="60" height="30" as="geometry" />
        </mxCell>
        <mxCell id="oXCxRZ8SSX7jiGahkm72-9" value="" style="shape=flexArrow;endArrow=classic;startArrow=classic;html=1;rounded=0;strokeWidth=2;" parent="1" edge="1">
          <mxGeometry width="100" height="100" relative="1" as="geometry">
            <mxPoint x="36.25" y="1816" as="sourcePoint" />
            <mxPoint x="121.25" y="1814" as="targetPoint" />
          </mxGeometry>
        </mxCell>
        <mxCell id="oXCxRZ8SSX7jiGahkm72-11" value="&lt;font style=&quot;font-size: 16px;&quot;&gt;SMTP&lt;/font&gt;" style="rounded=1;whiteSpace=wrap;html=1;" parent="1" vertex="1">
          <mxGeometry x="406.25" y="2140" width="103.75" height="60" as="geometry" />
        </mxCell>
        <mxCell id="oXCxRZ8SSX7jiGahkm72-15" value="" style="shape=flexArrow;endArrow=classic;startArrow=classic;html=1;rounded=0;strokeWidth=2;entryX=0.5;entryY=0;entryDx=0;entryDy=0;exitX=0.815;exitY=0.997;exitDx=0;exitDy=0;exitPerimeter=0;" parent="1" source="UC0Fd1rcEqtms9M9d0l6-39" target="oXCxRZ8SSX7jiGahkm72-11" edge="1">
          <mxGeometry width="100" height="100" relative="1" as="geometry">
            <mxPoint x="425" y="2070" as="sourcePoint" />
            <mxPoint x="428" y="2130" as="targetPoint" />
          </mxGeometry>
        </mxCell>
      </root>
    </mxGraphModel>
  </diagram>
</mxfile>
